<svg width="456" height="147" viewBox="0 0 456 147" fill="none" xmlns="http://www.w3.org/2000/svg">
<path fill-rule="evenodd" clip-rule="evenodd" d="M318.94 79.7845C317.42 88.2042 310.846 97.609 300.837 101.149C291.442 104.472 273.934 103.783 252.338 76.1167L223.008 102.453C251.513 138.97 284.371 150.171 312.815 140.112C332.016 133.321 346.969 117.215 353.675 98.242L333.302 84.1035L318.94 79.7845Z" fill="#1F8FFF"/>
<path fill-rule="evenodd" clip-rule="evenodd" d="M300.831 101.149C312.311 97.0892 319.271 85.3145 319.271 76.1593C319.271 64.9797 313.755 56.5055 302.844 52.125C291.231 47.4625 272.542 47.5025 249.873 59.3545C244.581 62.1213 239.513 64.9332 234.536 67.6942C221.834 74.7419 209.73 81.4576 196.028 86.2423C175.893 93.2737 151.879 96.6724 112.71 96.6724L112.71 55.6461C150.046 55.6461 169.512 52.3557 184.186 47.2316C194.796 43.5266 202.872 39.0373 214.061 32.818C219.471 29.8109 225.608 26.3993 233.112 22.4764C262.72 6.99645 292.484 4.1594 316.254 13.7023C340.726 23.5272 357.523 46.341 357.523 76.1593C357.523 103.91 339.169 130.79 312.81 140.112C284.365 150.172 251.507 138.97 223.002 102.453L252.332 76.117C273.928 103.783 291.436 104.472 300.831 101.149Z" fill="#1F8FFF"/>
<g style="mix-blend-mode:multiply">
<path fill-rule="evenodd" clip-rule="evenodd" d="M262.09 136.135C254.144 117.318 277.915 101.368 291.754 103.392L290.435 102.447C286.597 102.147 282.229 101.017 277.415 98.5684L235.227 116.324C243.983 125.065 253.013 131.634 262.09 136.135Z" fill="#E4E7E9"/>
</g>
<path fill-rule="evenodd" clip-rule="evenodd" d="M159.141 45.5404C145.719 48.0105 136.94 61.1675 136.94 71.5352C136.94 82.7148 142.456 91.189 153.367 95.5695C164.98 100.232 183.669 100.192 206.338 88.34C208.621 87.1464 210.862 85.9445 213.073 84.7418C189.931 47.8319 169.626 43.6107 159.141 45.5404ZM247.648 66.4954C219.022 18.6067 184.819 -0.811153 152.672 5.10496C121.148 10.9064 98.6875 40.905 98.6875 71.5352C98.6875 101.354 115.485 124.167 139.957 133.992C163.727 143.535 193.491 140.698 223.099 125.218C230.603 121.295 236.74 117.884 242.15 114.877C253.339 108.657 261.415 104.168 272.025 100.463C286.699 95.3388 306.165 92.0484 343.501 92.0484V51.0221C304.332 51.0221 280.318 54.4208 260.183 61.4522C255.869 62.9585 251.714 64.6562 247.648 66.4954Z" fill="#1F8FFF"/>
<path fill-rule="evenodd" clip-rule="evenodd" d="M153.409 95.5889C163.54 99.6381 179.034 100.113 197.847 92.3177L208.34 91.6252L254.243 71.112L258.461 62.0642C259.03 61.8569 259.602 61.6528 260.176 61.4522C277.324 55.4641 297.285 52.1107 327.022 51.2473L333.376 92.1353C302.522 92.6867 285.306 95.8231 272.019 100.463C261.409 104.168 253.332 108.657 242.144 114.877C236.734 117.884 230.596 121.295 223.093 125.218C193.484 140.698 163.72 143.535 139.95 133.992C124.054 127.61 111.396 115.748 104.477 100.045L153.409 95.5889Z" fill="#1F8FFF"/>
<path fill-rule="evenodd" clip-rule="evenodd" d="M104.003 96.4116C65.0271 96.4116 32.5693 89.6797 3.68633 70.6422C1.87949 69.4512 1.37295 67.0414 2.49455 65.1907L19.08 37.824C20.3078 35.798 22.9881 35.2371 24.9843 36.5128C45.5445 49.6522 69.9458 55.3853 104.003 55.3853V96.4116Z" fill="#1F8FFF"/>
<path fill-rule="evenodd" clip-rule="evenodd" d="M351.997 96.4116C390.973 96.4116 423.431 89.6797 452.314 70.6422C454.121 69.4512 454.627 67.0414 453.505 65.1907L436.92 37.824C435.692 35.798 433.012 35.2371 431.016 36.5128C410.456 49.6522 386.054 55.3853 351.997 55.3853V96.4116Z" fill="#1F8FFF"/>
<g style="mix-blend-mode:multiply">
<path fill-rule="evenodd" clip-rule="evenodd" d="M93.4622 96.2418C96.9333 96.3596 100.457 96.4164 104.036 96.4164V55.39C100.529 55.39 97.1239 55.3292 93.8152 55.2058C90.2776 67.5424 90.0584 84.4434 93.4622 96.2418Z" fill="#E4E7E9"/>
</g>
<g style="mix-blend-mode:multiply">
<path fill-rule="evenodd" clip-rule="evenodd" d="M156.376 53.4412C140.297 65.3129 155.227 95.3539 171.264 92.1687C171.135 92.3456 171.006 92.5193 170.876 92.6899C163.348 94.0036 155.062 94.988 145.7 95.6498C135.163 87.9059 126.282 71.9921 124.469 60.7273C124.159 58.7998 124.436 57.0663 125.17 55.5156C137.627 55.2347 147.801 54.5178 156.376 53.4412Z" fill="#E4E7E9"/>
</g>
<g style="mix-blend-mode:multiply">
<path fill-rule="evenodd" clip-rule="evenodd" d="M361.457 96.2702C358.342 96.3641 355.185 96.4095 351.984 96.4095V55.3831C355.11 55.3831 358.154 55.3349 361.121 55.237C364.653 67.5808 364.867 84.4805 361.457 96.2702Z" fill="#E4E7E9"/>
</g>
<g style="mix-blend-mode:multiply">
<path fill-rule="evenodd" clip-rule="evenodd" d="M322.667 51.3943C310.087 51.8794 299.308 52.8415 289.75 54.2924C306.828 57.4952 311.792 87.7314 297.793 94.5272C304.116 93.6647 311.33 93.0064 319.736 92.5859C324.118 85.9336 327.649 77.2006 329.826 69.3647L327.312 53.1848C325.985 52.4573 324.414 51.8666 322.667 51.3943Z" fill="#E4E7E9"/>
</g>
<path fill-rule="evenodd" clip-rule="evenodd" d="M152.958 47.5375C143.078 52.2192 136.924 62.8548 136.924 71.5352C136.924 82.7148 142.44 91.1889 153.351 95.5695C155.076 96.262 156.957 96.8507 158.984 97.3124L107.623 106.269C101.913 96.3813 98.6719 84.6341 98.6719 71.5352C98.6719 58.928 102.477 46.4278 109.153 35.6777L152.958 47.5375Z" fill="#1F8FFF"/>
<g style="mix-blend-mode:multiply">
<path fill-rule="evenodd" clip-rule="evenodd" d="M181.622 50.7408C177.494 48.2911 173.676 46.8021 170.242 45.9848C184.211 45.8261 204.597 30.7424 197.225 13.1316C205.934 17.9275 214.541 24.6534 222.896 33.37L181.622 50.7408Z" fill="#E4E7E9"/>
</g>
<path fill-rule="evenodd" clip-rule="evenodd" d="M245.095 61.8955C245.852 63.0664 246.871 64.5539 248.173 66.3228C239.663 70.4737 224.216 78.6996 212.835 84.9623C211.003 82.2889 209.826 80.4834 209.602 80.0012L230.023 68.2384L245.095 61.8955Z" fill="#1C82E7"/>
<path fill-rule="evenodd" clip-rule="evenodd" d="M166.727 51.8233C173.474 50.5513 179.111 49.0008 184.177 47.2316C194.787 43.5266 202.864 39.0374 214.052 32.818L214.052 32.818C218.726 30.2204 223.942 27.3211 230.112 24.051L253.617 57.4817C252.379 58.0701 251.128 58.694 249.864 59.3545C244.573 62.1211 239.505 64.9329 234.529 67.6937L234.528 67.6942C222.349 74.4517 210.72 80.9039 197.705 85.6415L166.727 51.8233Z" fill="#1F8FFF"/>
<path fill-rule="evenodd" clip-rule="evenodd" d="M350.99 46.0356C355.188 54.8963 357.523 65.0411 357.523 76.1598C357.523 86.4511 354.999 96.6226 350.479 105.823L303.88 99.843C313.532 94.9477 319.271 84.4737 319.271 76.1598C319.271 64.9802 313.755 56.5061 302.844 52.1255C302.214 51.8724 301.562 51.6332 300.891 51.4089L350.99 46.0356Z" fill="#1F8FFF"/>
<path d="M80.9797 1.18071C84.3282 9.7114 95.7432 21.1298 101.032 25.7727M90.3619 31.0231C83.6346 29.5622 69.3358 25.5712 65.9593 21.2951" stroke="black" stroke-width="5.1461"/>
<path d="M376.426 146.034C375.342 136.934 367.182 123.002 363.238 117.173M374.889 114.789C381.029 117.902 393.855 125.377 396.041 130.367" stroke="black" stroke-width="5.1461"/>
</svg>
