<svg width="608" height="550" viewBox="0 0 608 550" fill="none" xmlns="http://www.w3.org/2000/svg">
<path fill-rule="evenodd" clip-rule="evenodd" d="M353.721 449.022C360.686 448.29 386.693 439.707 410.642 380.139C413.32 373.477 415.934 366.847 418.527 360.271C431.169 328.209 443.312 297.41 459.985 270.313C480.715 236.624 507.84 208.825 549.571 181.222C553.257 178.785 558.215 179.881 560.59 183.607L605.743 254.438C608.118 258.164 607.013 263.103 603.34 265.558C572.66 286.055 556.899 303.631 545.153 322.72C533.502 341.654 525.242 362.502 512.72 394.105C509.872 401.292 506.803 409.037 503.424 417.441C472.723 493.806 423.607 542.227 364.174 548.474C304.315 554.766 255.264 515.37 239.246 463.342C229.682 432.277 236.051 402.61 244.82 379.043C253.509 355.692 267.054 331.967 279.289 310.845C280.056 309.521 280.821 308.202 281.584 306.885C307.039 262.969 330.171 223.061 337.408 179.163C342.687 147.144 334.412 125.809 324.742 114.705C315.835 104.478 302.013 98.2401 281.913 102.311C260.446 106.659 228.542 123.965 193.686 169.596C159.898 213.828 125.334 282.294 97.3102 382.686C96.1223 386.941 91.7266 389.475 87.4625 388.318L6.39466 366.318C2.13059 365.161 -0.386826 360.751 0.798518 356.494C31.2284 247.231 70.5814 166.019 114.218 108.893C158.669 50.7016 209.744 14.8971 262.063 4.30096C315.749 -6.57213 366.52 10.4123 400.153 49.0303C433.022 86.772 445.231 139.904 436.076 195.43C425.756 258.029 394.008 312.549 370.447 353.009C368.864 355.727 367.319 358.381 365.82 360.969C352.966 383.158 343.812 399.753 338.543 413.915C333.354 427.861 334.506 432.901 334.82 433.919C338.557 446.059 347.181 449.709 353.721 449.022Z" fill="#1F8FFF"/>
</svg>
