<svg width="588" height="570" viewBox="0 0 588 570" fill="none" xmlns="http://www.w3.org/2000/svg">
<path fill-rule="evenodd" clip-rule="evenodd" d="M167.843 37.9291C180.331 24.9757 187.185 15.0216 190.627 7.14731C192.397 3.09896 196.604 0.263427 200.935 1.13547L283.283 17.7147C287.614 18.5868 290.441 22.8155 289.308 27.0858C280.488 60.3011 259.69 86.7395 239.836 107.334C224.078 123.679 204.896 140.192 187.555 155.119C181.763 160.105 176.177 164.914 170.992 169.48C123.909 210.952 99.6645 241.494 101.022 278.415C101.439 289.772 104.642 296.325 108.156 300.72C112.03 305.567 118.72 310.742 129.971 314.977C139.39 318.523 150.736 320.91 163.437 322.036C173.337 287.71 191.332 256.967 211.978 233.081C238.657 202.217 274.369 176.649 312.029 168.072C331.341 163.674 353.836 163.231 375.642 172.252C398.372 181.655 415.285 199.278 425.483 221.595C437.892 248.75 437.574 276.931 427.317 302.237C417.699 325.967 400.44 344.767 382.334 359.096C350.304 384.444 306.941 402.719 263.074 412.981C266.767 421.653 271.893 430.229 278.61 438.592C298.209 462.994 329.931 474.287 376.956 467.947C422.639 461.788 476.144 439.216 527.158 404.791C530.82 402.319 535.806 403.199 538.335 406.822L586.41 475.705C588.939 479.328 588.055 484.319 584.399 486.8C524.286 527.588 455.877 558.212 390.317 567.051C321.717 576.3 249.389 561.904 200.643 501.211C179.818 475.282 167.079 448.553 160.611 422.115C137.788 420.584 115.38 416.335 94.7436 408.567C70.8226 399.563 47.6405 385.17 30.0469 363.162C12.0921 340.702 2.23007 313.115 1.08945 282.089C-2.17776 193.221 59.8988 134.072 104.896 94.439C112.203 88.0029 119.097 82.0667 125.622 76.448C141.717 62.5888 155.568 50.6615 167.843 37.9291ZM285.798 300.636C299.58 294.583 311.358 287.739 320.277 280.681C329.038 273.747 332.815 268.379 334.226 265.578C323.323 268.063 304.995 278.389 287.633 298.475C287.014 299.191 286.403 299.911 285.798 300.636ZM338.686 265.05C338.686 265.05 338.67 265.048 338.639 265.043C338.671 265.047 338.686 265.05 338.686 265.05Z" fill="#1F8FFF"/>
</svg>
