<svg width="2019" height="790" viewBox="0 0 2019 790" fill="none" xmlns="http://www.w3.org/2000/svg">
<path d="M1862.35 294.205L1828.3 330.825L1828.3 330.825L1862.35 294.205ZM1422.64 82.2427L1453.02 121.952L1422.64 82.2427ZM1576.47 474.767L1610.63 438.256L1610.63 438.256L1576.47 474.767ZM1315.48 687.711L1289.97 730.713L1289.97 730.713L1315.48 687.711ZM824.129 274.174L818.141 323.814L818.659 323.877L819.178 323.928L824.129 274.174ZM1995.03 350.069C2002.51 348.247 2005.05 351.452 1998.38 348.112C1992.35 345.085 1983.77 339.167 1972.35 329.496C1947.83 308.739 1925.92 285.034 1896.39 257.586L1828.3 330.825C1850.03 351.023 1881.99 384.02 1907.72 405.812C1921.43 417.415 1937.07 429.234 1953.57 437.506C1969.44 445.464 1992.83 453.53 2018.7 447.228L1995.03 350.069ZM1896.39 257.586C1881.39 243.638 1859.84 218.988 1825.46 183.566C1793.32 150.446 1753.56 111.937 1709.72 79.039C1666.36 46.501 1615.71 16.9028 1561.66 5.37112C1505.45 -6.62319 1446.19 1.26592 1392.25 42.5335L1453.02 121.952C1480.74 100.741 1509.26 96.4418 1540.79 103.17C1574.5 110.36 1611.55 130.395 1649.7 159.022C1687.37 187.29 1722.91 221.478 1753.7 253.209C1782.26 282.638 1811.28 314.993 1828.3 330.825L1896.39 257.586ZM1392.25 42.5335C1351.51 73.7086 1331.57 115.421 1329.69 161.214C1327.92 204.432 1342.26 248.011 1362.34 287.691C1402.55 367.11 1474.68 448.005 1542.3 511.278L1610.63 438.256C1546.16 377.937 1483.95 306.501 1451.56 242.523C1435.35 210.503 1428.82 184.616 1429.61 165.31C1430.3 148.579 1436.35 134.709 1453.02 121.952L1392.25 42.5335ZM1542.3 511.278C1600.4 565.63 1593.67 626.172 1563.91 658.114C1534.47 689.709 1460.08 715.356 1340.99 644.709L1289.97 730.713C1432.63 815.344 1563.88 804.83 1637.07 726.289C1709.93 648.095 1702.83 524.526 1610.63 438.256L1542.3 511.278ZM1340.99 644.709C1240.55 585.123 1204.4 504.05 1144.71 414.636C1115.69 371.162 1081.13 326.99 1030.35 291.984C979.124 256.664 914.776 232.947 829.08 224.42L819.178 323.928C890.949 331.07 938.494 350.114 973.592 374.313C1009.15 398.827 1035.35 430.932 1061.54 470.159C1112.27 546.148 1164.33 656.175 1289.97 730.713L1340.99 644.709ZM830.118 224.534C720.842 211.352 549.946 213.112 388.946 261.676C227.806 310.283 68.8176 408.537 0.233398 593.714L94.0082 628.446C147.564 483.846 273.023 401.094 417.825 357.416C562.766 313.695 719.305 311.891 818.141 323.814L830.118 224.534Z" fill="#1F8FFF"/>
</svg>
