<?xml version="1.0" encoding="UTF-8"?>
<!DOCTYPE svg PUBLIC "-//W3C//DTD SVG 1.1//EN" "http://www.w3.org/Graphics/SVG/1.1/DTD/svg11.dtd">
<svg xmlns="http://www.w3.org/2000/svg" version="1.1" width="1440px" height="1333px" style="shape-rendering:geometricPrecision; text-rendering:geometricPrecision; image-rendering:optimizeQuality; fill-rule:evenodd; clip-rule:evenodd" xmlns:xlink="http://www.w3.org/1999/xlink">
<g><path style="opacity:0.992" fill="#1f8fff" d="M 1179.5,-0.5 C 1233.17,-0.5 1286.83,-0.5 1340.5,-0.5C 1376.57,25.8922 1409.57,55.8922 1439.5,89.5C 1439.5,143.5 1439.5,197.5 1439.5,251.5C 1434.08,238.082 1428.91,224.416 1424,210.5C 1410.93,182.666 1394.59,156.999 1375,133.5C 1337.51,93.0513 1295.01,59.2179 1247.5,32C 1225.11,20.3009 1202.44,9.46756 1179.5,-0.5 Z"/></g>
<g><path style="opacity:0.991" fill="#1f8fff" d="M 1439.5,361.5 C 1439.5,454.167 1439.5,546.833 1439.5,639.5C 1427.64,624.558 1414.81,610.225 1401,596.5C 1345.01,660.768 1275.51,703.601 1192.5,725C 1184.89,726.657 1177.22,727.991 1169.5,729C 1109.55,738.008 1054.88,725.341 1005.5,691C 959.196,651.211 937.362,600.711 940,539.5C 945.91,495.622 966.744,460.789 1002.5,435C 1060.32,397.967 1123.32,384.967 1191.5,396C 1231.71,401.072 1270.05,412.405 1306.5,430C 1335.34,444.577 1362.67,461.41 1388.5,480.5C 1402.1,458.639 1413.6,435.639 1423,411.5C 1428.64,394.751 1434.14,378.084 1439.5,361.5 Z M 1134.5,469.5 C 1213.33,469.33 1283,494.33 1343.5,544.5C 1299.88,595.98 1245.55,630.814 1180.5,649C 1153.28,654.071 1125.94,654.738 1098.5,651C 1045.21,637.05 1018.05,602.55 1017,547.5C 1019.52,529.304 1027.68,514.137 1041.5,502C 1069.35,482.105 1100.35,471.272 1134.5,469.5 Z"/></g>
<g><path style="opacity:0.993" fill="#1f8fff" d="M -0.5,685.5 C 67.4907,737.665 117.991,803.331 151,882.5C 195.687,1007.03 179.353,1122.69 102,1229.5C 72.3764,1267.62 38.8764,1301.96 1.5,1332.5C 0.833333,1332.5 0.166667,1332.5 -0.5,1332.5C -0.5,1295.5 -0.5,1258.5 -0.5,1221.5C 48.6152,1173.62 79.1152,1115.62 91,1047.5C 98.5079,984.039 86.1746,924.706 54,869.5C 38.9705,843.099 20.8038,819.099 -0.5,797.5C -0.5,760.167 -0.5,722.833 -0.5,685.5 Z"/></g>
</svg>
