<svg width="118" height="124" viewBox="0 0 118 124" fill="none" xmlns="http://www.w3.org/2000/svg">
<path fill-rule="evenodd" clip-rule="evenodd" d="M23.4955 49.8606C19.0072 56.3579 13.2124 62.448 5.24247 65.6594L0.873047 55.0545C5.87667 53.0383 10.0761 48.9857 13.934 43.4009C17.5684 38.1397 20.5625 32.0375 23.6044 25.838C23.8095 25.4201 24.0147 25.0017 24.2204 24.5831C27.3217 18.2726 30.6869 11.5281 34.8488 6.86128C36.9995 4.44965 39.6318 2.27 42.8986 1.03581C46.2799 -0.241619 49.9062 -0.34008 53.6434 0.754805L53.936 0.840529L54.2178 0.956198C59.0049 2.92064 62.278 6.33843 63.6721 10.941C64.9613 15.1973 64.4481 19.8315 63.2868 24.1883C60.9724 32.8701 55.2873 43.2039 49.273 53.3627C47.4396 56.4594 45.5652 59.5566 43.7001 62.6383C39.2571 69.9796 34.8677 77.2326 31.2153 84.1791C25.9203 94.2496 22.9728 102.283 23.1938 107.774C23.273 109.743 24.6779 111.515 27.3324 112.264C30.0205 113.023 32.5839 112.289 33.996 110.535C36.5269 107.391 39.0098 102.717 41.5704 96.786C43.9334 91.3129 46.2103 85.1407 48.6072 78.6432C48.7851 78.161 48.9636 77.677 49.1429 77.1914C54.198 63.4989 59.9254 48.1696 67.8148 37.9597C74.0975 29.829 85.1995 24.2665 96.3422 27.2117C112.793 31.5599 120.77 49.4654 116.917 66.0681C112.901 83.3746 96.6702 99.2127 65.8358 103.392L64.2636 92.0462C91.6079 88.3402 102.954 75.0413 105.631 63.5067C108.471 51.2683 102.257 40.6284 93.3523 38.2749C87.8313 36.8156 81.2058 39.49 77.0155 44.9128C70.4184 53.4504 65.2592 66.9283 60.0202 81.1188C59.8331 81.6258 59.6458 82.1333 59.4585 82.6411C57.0921 89.0571 54.7113 95.5122 52.22 101.283C49.554 107.458 46.5825 113.286 43.0553 117.668C38.1337 123.781 30.3407 125.022 24.1547 123.276C17.9352 121.521 11.9484 116.309 11.6233 108.23C11.267 99.3754 15.6899 88.8842 20.9415 78.8962C24.7625 71.6289 29.4423 63.8958 33.9613 56.4282C35.7826 53.4187 37.5777 50.4522 39.2801 47.5768C45.3929 37.2515 50.2394 28.2101 52.0897 21.2691C53.0106 17.8145 52.9879 15.5754 52.5795 14.2269C52.2916 13.2767 51.7259 12.4017 50.0628 11.6547C48.7369 11.3168 47.8077 11.4398 47.031 11.7333C46.0841 12.091 44.9227 12.878 43.5335 14.4358C40.6155 17.7078 37.9157 22.9134 34.6353 29.5887C34.4071 30.0529 34.1768 30.5229 33.9439 30.9979C30.9877 37.029 27.6362 43.8664 23.4955 49.8606Z" fill="#131313"/>
</svg>
