<svg
	width="117"
	height="124"
	viewBox="0 0 117 124"
	fill="none"
	xmlns="http://www.w3.org/2000/svg"
>
	<path
		fill-rule="evenodd"
		clip-rule="evenodd"
		d="M22.6224 49.8606C18.1341 56.3579 12.3393 62.448 4.36942 65.6594L0 55.0545C5.00362 53.0383 9.20303 48.9857 13.061 43.4009C16.6954 38.1397 19.6895 32.0375 22.7313 25.838C22.9364 25.4201 23.1417 25.0017 23.3474 24.5831C26.4486 18.2726 29.8139 11.5281 33.9758 6.86128C36.1265 4.44965 38.7587 2.27 42.0255 1.03581C45.4068 -0.241619 49.0332 -0.34008 52.7703 0.754805L53.0629 0.840529L53.3448 0.956198C58.1318 2.92064 61.405 6.33843 62.7991 10.941C64.0883 15.1973 63.5751 19.8315 62.4137 24.1883C60.0994 32.8701 54.4142 43.2039 48.3999 53.3627C46.5666 56.4594 44.6921 59.5566 42.8271 62.6383C38.3841 69.9796 33.9946 77.2326 30.3422 84.1791C25.0473 94.2496 22.0997 102.283 22.3207 107.774C22.3999 109.743 23.8048 111.515 26.4594 112.264C29.1475 113.023 31.7109 112.289 33.1229 110.535C35.6538 107.391 38.1368 102.717 40.6974 96.786C43.0603 91.3129 45.3372 85.1407 47.7341 78.6432C47.912 78.161 48.0906 77.677 48.2698 77.1914C53.3249 63.4989 59.0524 48.1696 66.9417 37.9597C73.2244 29.829 84.3264 24.2665 95.4691 27.2117C111.92 31.5599 119.897 49.4654 116.044 66.0681C112.028 83.3747 95.7971 99.2127 64.9628 103.392L63.3905 92.0462C90.7348 88.3402 102.081 75.0413 104.758 63.5067C107.598 51.2683 101.384 40.6284 92.4792 38.2749C86.9582 36.8156 80.3328 39.49 76.1425 44.9128C69.5454 53.4504 64.3862 66.9283 59.1472 81.1188C58.96 81.6258 58.7728 82.1333 58.5855 82.6411C56.2191 89.0571 53.8382 95.5122 51.347 101.283C48.6809 107.458 45.7095 113.286 42.1822 117.668C37.2606 123.781 29.4676 125.022 23.2817 123.276C17.0622 121.521 11.0753 116.309 10.7502 108.23C10.394 99.3754 14.8169 88.8842 20.0684 78.8962C23.8895 71.6289 28.5692 63.8958 33.0883 56.4282C34.9095 53.4187 36.7047 50.4522 38.407 47.5768C44.5198 37.2515 49.3663 28.2101 51.2166 21.2691C52.1375 17.8145 52.1149 15.5754 51.7064 14.2269C51.4186 13.2767 50.8529 12.4017 49.1898 11.6547C47.8639 11.3168 46.9347 11.4398 46.1579 11.7333C45.211 12.091 44.0497 12.878 42.6604 14.4358C39.7425 17.7078 37.0427 22.9134 33.7622 29.5887C33.5341 30.0529 33.3037 30.5229 33.0709 30.9979C30.1146 37.029 26.7631 43.8664 22.6224 49.8606Z"
		fill="#ffffff"
	/>
</svg>
