<svg width="500.000275" height="298.128784" viewBox="0 0 500 298.129" fill="none" xmlns="http://www.w3.org/2000/svg" xmlns:xlink="http://www.w3.org/1999/xlink">
	<desc>
			Created with Pixso.
	</desc>
	<defs>
		<radialGradient gradientTransform="translate(149.152 148.229) rotate(90) scale(144.092 144.093)" cx="0.000000" cy="0.000000" r="1.000000" id="paint_radial_1_4319_0" gradientUnits="userSpaceOnUse">
			<stop stop-color="#C8E4FA"/>
			<stop offset="1.000000" stop-color="#EBF5FF"/>
		</radialGradient>
		<radialGradient gradientTransform="translate(351.652 148.229) rotate(90) scale(144.092 144.093)" cx="0.000000" cy="0.000000" r="1.000000" id="paint_radial_1_4318_0" gradientUnits="userSpaceOnUse">
			<stop stop-color="#FFEAC2"/>
			<stop offset="1.000000" stop-color="#FFEAC2" stop-opacity="0.000000"/>
		</radialGradient>
	</defs>
	<g opacity="0.600000" style="mix-blend-mode:darken">
		<ellipse id="Ellipse 1263" cx="149.152069" cy="148.228882" rx="144.092499" ry="144.092438" fill="url(#paint_radial_1_4319_0)" fill-opacity="1.000000"/>
	</g>
	<path id="Vector 332 (Stroke)" d="M237.6 147.55C235.94 149.95 233.79 152.2 230.84 153.39L229.22 149.47C231.07 148.72 232.63 147.23 234.06 145.16C235.4 143.22 236.51 140.96 237.64 138.67C237.72 138.52 237.79 138.36 237.87 138.21C239.02 135.87 240.26 133.38 241.8 131.66C242.6 130.76 243.58 129.96 244.79 129.5C246.04 129.03 247.38 128.99 248.77 129.4L248.87 129.43L248.98 129.47C250.75 130.2 251.96 131.46 252.48 133.16C252.96 134.74 252.77 136.45 252.34 138.06C251.48 141.27 249.37 145.09 247.15 148.84C246.47 149.99 245.77 151.13 245.08 152.27C243.44 154.99 241.81 157.67 240.46 160.23C238.5 163.96 237.41 166.93 237.49 168.96C237.52 169.68 238.04 170.34 239.02 170.61C240.02 170.9 240.97 170.62 241.49 169.98C242.43 168.81 243.35 167.09 244.29 164.89C245.17 162.87 246.01 160.59 246.9 158.19C246.97 158.01 247.03 157.83 247.1 157.65C248.97 152.59 251.09 146.92 254.01 143.15C256.34 140.14 260.45 138.09 264.58 139.18C270.67 140.78 273.63 147.4 272.2 153.54C270.71 159.94 264.7 165.79 253.28 167.34L252.7 163.14C262.83 161.77 267.03 156.86 268.02 152.59C269.07 148.07 266.77 144.14 263.47 143.27C261.43 142.73 258.97 143.72 257.42 145.72C254.98 148.88 253.07 153.86 251.13 159.1C251.06 159.29 250.99 159.48 250.92 159.67C250.04 162.04 249.16 164.42 248.24 166.56C247.25 168.84 246.15 170.99 244.84 172.61C243.02 174.87 240.14 175.33 237.84 174.69C235.54 174.04 233.32 172.11 233.2 169.12C233.07 165.85 234.71 161.97 236.65 158.28C238.07 155.59 239.8 152.74 241.48 149.98C242.15 148.86 242.82 147.77 243.45 146.7C245.71 142.89 247.5 139.55 248.19 136.98C248.53 135.7 248.52 134.88 248.37 134.38C248.27 134.03 248.06 133.7 247.44 133.43C246.95 133.3 246.6 133.35 246.32 133.46C245.97 133.59 245.54 133.88 245.02 134.46C243.94 135.66 242.94 137.59 241.73 140.06C241.64 140.23 241.56 140.4 241.47 140.58C240.37 142.81 239.13 145.33 237.6 147.55Z" fill="#131313" fill-opacity="1.000000" fill-rule="evenodd"/>
	<g style="mix-blend-mode:multiply">
		<ellipse id="Ellipse 1257" cx="149.064575" cy="149.064392" rx="149.064590" ry="149.064377" fill="#EBF5FF" fill-opacity="1.000000"/>
	</g>
	<g opacity="0.600000" style="mix-blend-mode:darken">
		<ellipse id="Ellipse 1264" cx="351.652069" cy="148.229126" rx="144.092499" ry="144.092438" fill="url(#paint_radial_1_4318_0)" fill-opacity="1.000000"/>
	</g>
	<g style="mix-blend-mode:multiply">
		<ellipse id="Ellipse 1258" cx="350.935669" cy="149.064392" rx="149.064590" ry="149.064377" fill="#FFF3DE" fill-opacity="1.000000"/>
	</g>
	<path id="Events" d="M158.76 149.11L157.48 149.11C157.35 148.03 156.35 147.4 155.03 147.4C153.58 147.4 152.62 148.17 152.62 149.21C152.62 150.38 153.92 150.81 154.73 151.02L155.84 151.32C156.97 151.62 158.91 152.28 158.91 154.32C158.91 156.09 157.48 157.48 154.96 157.48C152.62 157.48 151.17 156.26 151.04 154.47L152.41 154.47C152.51 155.71 153.66 156.29 154.96 156.29C156.48 156.29 157.63 155.5 157.63 154.3C157.63 153.22 156.6 152.81 155.45 152.49L154.11 152.11C152.41 151.62 151.34 150.75 151.34 149.27C151.34 147.44 152.98 146.23 155.07 146.23C157.18 146.23 158.7 147.46 158.76 149.11ZM107.68 157.29L101.01 157.29L101.01 146.38L107.59 146.38L107.59 147.55L102.33 147.55L102.33 151.24L107.25 151.24L107.25 152.41L102.33 152.41L102.33 156.11L107.68 156.11L107.68 157.29ZM109.34 146.38L110.72 146.38L113.96 155.56L114.09 155.56L117.33 146.38L118.71 146.38L114.71 157.29L113.35 157.29L109.34 146.38ZM127.39 157.29L120.72 157.29L120.72 146.38L127.3 146.38L127.3 147.55L122.04 147.55L122.04 151.24L126.96 151.24L126.96 152.41L122.04 152.41L122.04 156.11L127.39 156.11L127.39 157.29ZM137.34 146.38L138.64 146.38L138.64 157.29L137.36 157.29L131.42 148.72L131.31 148.72L131.31 157.29L129.99 157.29L129.99 146.38L131.27 146.38L137.23 154.96L137.34 154.96L137.34 146.38ZM144.42 147.55L140.99 147.55L140.99 146.38L149.17 146.38L149.17 147.55L145.74 147.55L145.74 157.29L144.42 157.29L144.42 147.55Z" fill="#131313" fill-opacity="1.000000" fill-rule="evenodd"/>
	<path id="travel" d="M356.18 147.55L352.75 147.55L352.75 146.38L360.93 146.38L360.93 147.55L357.5 147.55L357.5 157.29L356.18 157.29L356.18 147.55ZM364.6 157.29L363.28 157.29L363.28 146.38L366.96 146.38C369.52 146.38 370.67 147.79 370.67 149.72C370.67 151.17 370.02 152.31 368.63 152.78L371.1 157.29L369.56 157.29L367.26 153.02C367.17 153.02 367.08 153.02 366.99 153.02L364.6 153.02L364.6 157.29ZM374.71 154.2L373.61 157.29L372.23 157.29L376.24 146.38L377.6 146.38L381.61 157.29L380.22 157.29L379.12 154.2L374.71 154.2ZM381.65 146.38L383.03 146.38L386.27 155.56L386.4 155.56L389.64 146.38L391.02 146.38L387.02 157.29L385.66 157.29L381.65 146.38ZM399.7 157.29L393.03 157.29L393.03 146.38L399.61 146.38L399.61 147.55L394.35 147.55L394.35 151.24L399.27 151.24L399.27 152.41L394.35 152.41L394.35 156.11L399.7 156.11L399.7 157.29ZM408.69 157.29L402.3 157.29L402.3 146.38L403.62 146.38L403.62 156.11L408.69 156.11L408.69 157.29ZM364.6 147.55L364.6 151.83L366.94 151.83C368.69 151.83 369.37 151.03 369.37 149.72C369.37 148.41 368.69 147.55 366.92 147.55L364.6 147.55ZM376.87 148.1L375.13 153.02L378.71 153.02L376.96 148.1L376.87 148.1Z" fill="#131313" fill-opacity="1.000000" fill-rule="evenodd"/>
</svg>
